<svg width="24" height="24" viewBox="0 0 24 24" fill="none" xmlns="http://www.w3.org/2000/svg">
<path fill-rule="evenodd" clip-rule="evenodd" d="M11.4998 10.5043C13.0752 10.5043 14.352 9.22754 14.352 7.65216C14.352 6.07678 13.0752 4.8 11.4998 4.8C9.92443 4.8 8.64766 6.07678 8.64766 7.65216C8.64766 9.22754 9.92443 10.5043 11.4998 10.5043ZM11.4998 12.3043C14.0693 12.3043 16.152 10.2217 16.152 7.65216C16.152 5.08266 14.0693 3 11.4998 3C8.93032 3 6.84766 5.08266 6.84766 7.65216C6.84766 10.2217 8.93032 12.3043 11.4998 12.3043Z" fill="#2E2E2E"/>
<path fill-rule="evenodd" clip-rule="evenodd" d="M5.07156 19.0864H17.9292C16.7639 16.8162 14.3511 15.3 11.6134 15.3H11.3873C8.64977 15.3 6.23701 16.8161 5.07156 19.0864ZM3.08846 19.1215C2.76578 19.9624 3.36263 20.8864 4.28252 20.8864H18.7174C19.6374 20.8864 20.2334 19.9638 19.9121 19.1211C18.6352 15.7672 15.3441 13.5 11.6134 13.5H11.3873C7.65664 13.5 4.36548 15.7672 3.08846 19.1215Z" fill="#2E2E2E"/>
</svg>
