<svg width="113" height="38" viewBox="0 0 113 38" fill="none" xmlns="http://www.w3.org/2000/svg">
<g clip-path="url(#clip0_469_628)">
<path d="M20.3398 37.2228H18.4866C18.2154 37.2228 17.9894 37.1315 17.8086 36.9488C17.6278 36.7661 17.5374 36.5378 17.4922 36.2637V2.05566C17.4922 1.91864 17.4922 1.78163 17.5374 1.69029C17.5826 1.59894 17.673 1.46193 17.7634 1.37058C17.8538 1.27924 17.9442 1.1879 18.0798 1.14223C18.2154 1.09655 18.3058 1.05088 18.4414 1.09655H20.3398C20.5658 1.09655 20.837 1.1879 21.0178 1.37058C21.1986 1.55327 21.289 1.78163 21.3342 2.00999V36.2637C21.3342 36.7661 20.7918 37.2228 20.3398 37.2228Z" fill="#3F3C38"/>
<path d="M33.2669 15.9856H31.7301C31.1425 15.9856 30.7809 16.3967 30.7809 17.0361V36.2639C30.7809 36.5379 30.6453 36.7662 30.4645 36.9489C30.2837 37.1316 30.0125 37.223 29.7413 37.223H27.9333C27.7073 37.223 27.4361 37.1316 27.3005 36.9489C27.1197 36.7662 27.0293 36.5379 27.0293 36.3095V2.10146C27.0293 1.82743 27.1197 1.59907 27.3005 1.41638C27.4813 1.23369 27.7073 1.09668 27.9785 1.09668H33.3121C35.8433 1.09668 37.3349 1.59907 38.5101 2.69519C39.8209 4.01967 40.4989 5.84653 40.4989 8.40414C40.4085 13.6564 38.1937 15.9856 33.2669 15.9856ZM32.3629 4.65907H31.6849C31.5493 4.65907 31.4137 4.70474 31.3233 4.75041C31.1877 4.79608 31.0973 4.88743 31.0069 4.97877C30.9165 5.07011 30.8261 5.20713 30.7809 5.29847C30.7357 5.38982 30.7357 5.52683 30.7357 5.66385V11.4185C30.7357 12.0579 31.0973 12.3776 31.6849 12.3776H32.3629C35.3913 12.3776 36.3857 11.4185 36.3857 8.6325C36.4309 5.5725 35.4817 4.65907 32.3629 4.65907Z" fill="#3F3C38"/>
<path d="M6.64483 15.9856H5.10803C4.52043 15.9856 4.15883 16.3967 4.15883 17.0361V36.2639C4.15883 36.5379 4.02323 36.7662 3.84243 36.9489C3.66163 37.1316 3.39043 37.223 3.11923 37.223H1.31123C1.08523 37.223 0.814027 37.1316 0.678427 36.9489C0.497627 36.7662 0.407227 36.5379 0.407227 36.3095V2.10146C0.407227 1.82743 0.497627 1.59907 0.678427 1.41638C0.859227 1.23369 1.08523 1.09668 1.35643 1.09668H6.69003C9.22123 1.09668 10.7128 1.59907 11.888 2.69519C13.1988 4.01967 13.8768 5.84653 13.8768 8.40414C13.7864 13.6564 11.5716 15.9856 6.64483 15.9856ZM5.78603 4.65907H5.10803C4.97243 4.65907 4.83683 4.70474 4.74643 4.75041C4.61083 4.79608 4.52043 4.88743 4.43003 4.97877C4.33963 5.07011 4.24923 5.20713 4.20403 5.29847C4.15883 5.38982 4.11363 5.52683 4.11363 5.66385V11.4185C4.11363 12.0579 4.47523 12.3776 5.06283 12.3776H5.74083C8.76923 12.3776 9.76363 11.4185 9.76363 8.6325C9.80883 5.5725 8.90483 4.65907 5.78603 4.65907Z" fill="#3F3C38"/>
<path d="M50.0812 37.2229C47.6404 37.2229 45.6064 36.1724 44.612 34.4369C43.6628 32.7927 43.3916 31.5139 43.3916 27.7232V10.0025C43.3916 5.8921 43.6628 4.56762 44.7928 3.06046C45.968 1.50762 47.776 0.731201 50.036 0.731201C54.1944 0.731201 56.7708 3.60852 56.7708 8.3127C56.7708 8.86076 56.2284 9.2718 55.7312 9.2718H53.9684C53.6972 9.2718 53.4712 9.13479 53.2904 8.99777C53.1096 8.81509 52.974 8.58673 52.974 8.3127C52.8836 5.70941 51.844 4.33926 49.9908 4.33926C47.9116 4.33926 47.1884 5.66374 47.1884 9.2718V28.2712C47.1884 32.2903 47.9116 33.6605 50.036 33.6605C51.9796 33.6605 52.974 32.1533 53.0192 29.0476C53.0192 28.9106 53.0192 28.7736 53.0644 28.6366C53.1096 28.4996 53.2 28.4082 53.2904 28.3169C53.3808 28.2255 53.5164 28.1342 53.6068 28.0885C53.7424 28.0429 53.878 28.0429 54.0136 28.0429H55.7764C56.4092 28.0429 56.816 28.4082 56.816 29.0476C56.816 34.3455 54.4656 37.2229 50.0812 37.2229Z" fill="#3F3C38"/>
<path d="M72.501 26.9011C71.2806 28.4996 69.4726 29.3217 67.1674 29.3217C64.8622 29.3217 62.8734 28.4539 61.8338 26.9011C60.7942 25.4396 60.4326 23.7954 60.4326 20.9637V9.08911C60.4326 6.25747 60.8394 4.47628 61.8338 3.10613C62.9638 1.50762 64.7718 0.731201 67.1674 0.731201C69.4726 0.731201 71.4614 1.55329 72.501 3.10613C73.4954 4.56762 73.9022 6.2118 73.9022 9.08911V20.9637C73.9022 23.7954 73.4954 25.5309 72.501 26.9011ZM70.0602 9.13479C70.0602 5.5724 69.2918 4.33926 67.1674 4.33926C64.9978 4.33926 64.2746 5.5724 64.2746 9.13479V20.9181C64.2746 24.4805 64.9526 25.6679 67.1674 25.6679C69.2918 25.6679 70.0602 24.4348 70.0602 20.9181V9.13479Z" fill="#3F3C38"/>
<path d="M91.0779 37.1316H89.0439C88.3207 37.1316 87.9591 36.7662 87.7331 36.1268L85.1115 24.0695C84.8855 23.3845 84.6143 23.1104 83.8459 23.1104H83.4843C82.8063 23.1104 82.4899 23.4301 82.4899 24.0695V36.1725C82.4899 36.4465 82.3995 36.6749 82.2187 36.8576C82.0379 37.0403 81.8119 37.1316 81.5407 37.1316H79.6423C78.6479 37.1316 78.6931 36.7206 78.6931 30.3265C78.6931 30.3265 78.5575 26.8555 78.6931 1.82743C78.6931 1.64474 78.7835 1.46205 78.9191 1.32504C79.0547 1.18802 79.2355 1.09668 79.4163 1.09668H84.7047C93.5187 1.09668 91.7559 11.7838 91.7559 16.4424C91.7559 19.2283 90.9423 20.3244 89.2247 21.5576C88.6371 21.9686 88.5015 22.2427 88.6823 22.8364L91.7559 36.1268C91.9367 36.6292 91.6203 37.1316 91.0779 37.1316ZM83.8911 4.65907H83.4843C83.2131 4.65907 82.9419 4.75041 82.7611 4.97877C82.5803 5.16146 82.4899 5.43549 82.4899 5.70952V18.5433C82.4899 18.8173 82.5803 19.0913 82.8063 19.274C82.9871 19.4567 83.2583 19.5937 83.5295 19.5937H83.9363C86.8291 19.5937 87.9139 19.5024 87.9139 16.6707C87.9139 13.7477 89.4959 3.88265 83.8911 4.65907Z" fill="#3F3C38"/>
<path d="M109.519 37.223H107.666C106.988 37.223 106.536 36.8119 106.265 36.2182L100.931 15.8943C100.705 15.3919 100.525 15.4376 100.525 15.8943V36.2182C100.525 36.3552 100.525 36.4922 100.479 36.6292C100.434 36.7662 100.344 36.8576 100.253 36.9489C100.163 37.0403 100.027 37.1316 99.937 37.1773C99.8014 37.223 99.6658 37.2686 99.5302 37.223H97.6318C97.4962 37.223 97.3606 37.223 97.2702 37.1773C97.1346 37.1316 97.0442 37.0403 96.9538 36.9489C96.8634 36.8576 96.773 36.7662 96.7278 36.6292C96.6826 36.4922 96.6826 36.3552 96.6826 36.2639V2.10146C96.6826 1.50772 97.0442 1.09668 97.6318 1.09668H99.485C99.8014 1.09668 100.073 1.18802 100.299 1.37071C100.525 1.5534 100.751 1.78175 100.841 2.05578L106.355 23.4758C106.581 23.9782 106.762 23.9325 106.762 23.4758L106.672 2.10146C106.672 1.96444 106.672 1.82743 106.717 1.73608C106.762 1.59907 106.853 1.50772 106.943 1.41638C107.033 1.32504 107.124 1.23369 107.259 1.18802C107.395 1.14235 107.485 1.09668 107.621 1.09668H109.474C110.062 1.09668 110.469 1.46205 110.469 2.05578V36.2639C110.469 36.5379 110.333 36.7662 110.152 36.9489C110.017 37.0859 109.745 37.223 109.519 37.223Z" fill="#3F3C38"/>
<path d="M67.1669 33.8433C64.6357 33.8433 62.5565 35.2591 62.4209 37.0859V37.1316C62.4209 37.1316 62.4209 37.1773 62.4661 37.1773L62.5113 37.223H62.5565H71.7321H71.7773C71.7773 37.223 71.8225 37.223 71.8225 37.1773L71.8677 37.1316V37.0859C71.7773 35.2591 69.6981 33.8433 67.1669 33.8433Z" fill="#3F3C38"/>
<path d="M112.684 1.73612C112.684 1.87313 112.639 2.01015 112.594 2.10149C112.503 2.23851 112.413 2.28418 112.277 2.37552C112.142 2.42119 112.006 2.46686 111.87 2.42119C111.735 2.37552 111.644 2.32985 111.554 2.23851C111.464 2.14716 111.373 2.01015 111.373 1.87313C111.328 1.73612 111.373 1.5991 111.418 1.46209C111.464 1.32507 111.554 1.23373 111.69 1.14239C111.78 1.05104 111.916 1.00537 112.051 1.00537C112.142 1.00537 112.232 1.00537 112.322 1.05104C112.413 1.09671 112.458 1.14239 112.548 1.18806C112.594 1.23373 112.639 1.32507 112.684 1.41642C112.639 1.55343 112.684 1.64477 112.684 1.73612ZM111.509 1.73612C111.509 1.82746 111.509 1.87313 111.554 1.9188C111.599 1.96448 111.599 2.05582 111.644 2.10149C111.69 2.14716 111.735 2.19283 111.825 2.23851C111.87 2.28418 111.961 2.28418 112.006 2.28418C112.051 2.28418 112.142 2.28418 112.187 2.23851C112.232 2.19283 112.322 2.19283 112.368 2.10149C112.413 2.05582 112.458 2.01015 112.458 1.9188C112.503 1.87313 112.503 1.78179 112.503 1.73612C112.503 1.64477 112.503 1.5991 112.458 1.55343C112.413 1.50776 112.413 1.41642 112.368 1.37074C112.322 1.32507 112.277 1.2794 112.187 1.23373C112.142 1.18806 112.051 1.18806 112.006 1.18806C111.916 1.18806 111.87 1.18806 111.825 1.23373C111.78 1.2794 111.69 1.2794 111.644 1.37074C111.599 1.41642 111.554 1.46209 111.554 1.55343C111.509 1.5991 111.509 1.69045 111.509 1.73612ZM111.916 2.10149H111.78V1.41642C111.87 1.41642 111.961 1.41642 112.051 1.41642C112.142 1.41642 112.187 1.41642 112.277 1.46209L112.322 1.50776C112.322 1.55343 112.322 1.55343 112.322 1.5991C112.322 1.64477 112.322 1.69045 112.277 1.69045C112.232 1.73612 112.232 1.73612 112.187 1.73612C112.232 1.73612 112.232 1.78179 112.277 1.78179C112.277 1.82746 112.322 1.82746 112.322 1.87313C112.322 1.9188 112.322 1.96448 112.368 2.05582H112.187C112.142 2.01015 112.142 1.96448 112.142 1.87313C112.142 1.78179 112.096 1.78179 112.006 1.78179H111.916V2.10149ZM111.916 1.69045H112.006C112.096 1.69045 112.142 1.64477 112.142 1.5991C112.142 1.55343 112.096 1.50776 112.006 1.50776C111.961 1.50776 111.961 1.50776 111.916 1.50776V1.69045Z" fill="#3F3C38"/>
</g>
<defs>
<clipPath id="clip0_469_628">
<rect width="113" height="36.994" fill="white" transform="translate(0 0.50293)"/>
</clipPath>
</defs>
</svg>
