<svg width="20" height="21" viewBox="0 0 20 21" fill="none" xmlns="http://www.w3.org/2000/svg">
<path d="M9.41406 3.46875H10.5859C10.6901 3.46875 10.7422 3.52083 10.7422 3.625V17.375C10.7422 17.4792 10.6901 17.5312 10.5859 17.5312H9.41406C9.3099 17.5312 9.25781 17.4792 9.25781 17.375V3.625C9.25781 3.52083 9.3099 3.46875 9.41406 3.46875Z" fill="#953300" stroke="#953300" stroke-width="1.33333"/>
<path d="M3.4375 9.75781H16.5625C16.6667 9.75781 16.7188 9.8099 16.7188 9.91406V11.0859C16.7188 11.1901 16.6667 11.2422 16.5625 11.2422H3.4375C3.33333 11.2422 3.28125 11.1901 3.28125 11.0859V9.91406C3.28125 9.8099 3.33333 9.75781 3.4375 9.75781Z" fill="#953300" stroke="#953300" stroke-width="1.33333"/>
</svg>
