<svg width="16" height="16" viewBox="0 0 16 16" fill="none" xmlns="http://www.w3.org/2000/svg">
<path fill-rule="evenodd" clip-rule="evenodd" d="M10.677 3.32305C12.7077 5.35377 12.7077 8.6462 10.677 10.677C8.6462 12.7077 5.35377 12.7077 3.32304 10.677C1.29232 8.6462 1.29232 5.35377 3.32304 3.32304C5.35377 1.29232 8.6462 1.29232 10.677 3.32305ZM12.6067 11.1925C14.6623 8.4507 14.4433 4.54386 11.9497 2.05025C9.2161 -0.683418 4.78392 -0.683418 2.05025 2.05025C-0.683418 4.78392 -0.683418 9.2161 2.05025 11.9497C4.59262 14.4921 8.6041 14.67 11.3521 12.4835L14.5673 15.6987C14.7625 15.894 15.0791 15.894 15.2744 15.6987L15.8401 15.133C16.0353 14.9377 16.0353 14.6212 15.8401 14.4259L12.6067 11.1925Z" fill="#2E2E2E"/>
</svg>
