<svg width="24" height="24" viewBox="0 0 24 24" fill="none" xmlns="http://www.w3.org/2000/svg">
<path d="M8.93934 19.9611C9.22064 20.2424 9.60218 20.4004 10 20.4004C10.3978 20.4004 10.7794 20.2424 11.0607 19.9611C11.342 19.6797 11.5 19.2982 11.5 18.9004C11.5 18.5026 11.342 18.121 11.0607 17.8397C10.7794 17.5584 10.3978 17.4004 10 17.4004C9.60218 17.4004 9.22064 17.5584 8.93934 17.8397C8.65804 18.121 8.5 18.5026 8.5 18.9004C8.5 19.2982 8.65804 19.6797 8.93934 19.9611Z" fill="#2E2E2E"/>
<path d="M17.4393 19.9611C17.7206 20.2424 18.1022 20.4004 18.5 20.4004C18.8978 20.4004 19.2794 20.2424 19.5607 19.9611C19.842 19.6797 20 19.2982 20 18.9004C20 18.5026 19.842 18.121 19.5607 17.8397C19.2794 17.5584 18.8978 17.4004 18.5 17.4004C18.1022 17.4004 17.7206 17.5584 17.4393 17.8397C17.158 18.121 17 18.5026 17 18.9004C17 19.2982 17.158 19.6797 17.4393 19.9611Z" fill="#2E2E2E"/>
<path fill-rule="evenodd" clip-rule="evenodd" d="M3 4.5C3 4.22386 3.22386 4 3.5 4H6.56635C7.26306 4 7.85375 4.5123 7.95228 5.20201L8.13771 6.5H19.9336C20.7757 6.5 21.4272 7.23805 21.3228 8.07365L20.4478 15.0736C20.3602 15.7742 19.7647 16.3 19.0586 16.3H8.93365C8.23694 16.3 7.64625 15.7877 7.54772 15.098L6.21943 5.8H3.5C3.22386 5.8 3 5.57614 3 5.3V4.5ZM8.39485 8.3L9.28057 14.5H18.7055L19.4805 8.3H8.39485Z" fill="#2E2E2E"/>
</svg>
