<svg width="78" height="14" viewBox="0 0 78 14" fill="none" xmlns="http://www.w3.org/2000/svg">
<g clip-path="url(#clip0_425_4689)">
<path fill-rule="evenodd" clip-rule="evenodd" d="M6.29237 0.533549C6.51311 -0.177851 7.48688 -0.177848 7.70763 0.533549L8.95317 4.54743C8.99412 4.67955 9.10761 4.7598 9.22582 4.7598H13.2561C13.6218 4.7598 13.8755 5.00886 13.9637 5.29344C14.0518 5.57742 13.9857 5.92695 13.6965 6.14694L10.4362 8.62733C10.3344 8.70476 10.2874 8.84739 10.3288 8.98091L11.5742 12.9944C11.6821 13.3422 11.5445 13.6673 11.3073 13.8479C11.0685 14.0296 10.7187 14.0707 10.4261 13.848L7.16526 11.3673C7.06602 11.2918 6.93398 11.2918 6.83474 11.3673L3.57392 13.848C3.28122 14.0707 2.93147 14.0296 2.69277 13.8479C2.45551 13.6673 2.31787 13.3422 2.42578 12.9944L3.67117 8.98091C3.7126 8.84739 3.66555 8.70477 3.56376 8.62733L0.303418 6.14694C0.0142547 5.92695 -0.0518018 5.57741 0.0362771 5.29344C0.124545 5.00885 0.378188 4.7598 0.743936 4.7598H4.7742C4.89238 4.7598 5.00587 4.67955 5.04687 4.54743L6.29237 0.533549Z" fill="#3F3C38"/>
<mask id="mask0_425_4689" style="mask-type:alpha" maskUnits="userSpaceOnUse" x="0" y="0" width="14" height="14">
<path fill-rule="evenodd" clip-rule="evenodd" d="M6.29237 0.533549C6.51311 -0.177851 7.48688 -0.177848 7.70763 0.533549L8.95317 4.54743C8.99412 4.67955 9.10761 4.7598 9.22582 4.7598H13.2561C13.6218 4.7598 13.8755 5.00886 13.9637 5.29344C14.0518 5.57742 13.9857 5.92695 13.6965 6.14694L10.4362 8.62733C10.3344 8.70476 10.2874 8.84739 10.3288 8.98091L11.5742 12.9944C11.6821 13.3422 11.5445 13.6673 11.3073 13.8479C11.0685 14.0296 10.7187 14.0707 10.4261 13.848L7.16526 11.3673C7.06602 11.2918 6.93398 11.2918 6.83474 11.3673L3.57392 13.848C3.28122 14.0707 2.93147 14.0296 2.69277 13.8479C2.45551 13.6673 2.31787 13.3422 2.42578 12.9944L3.67117 8.98091C3.7126 8.84739 3.66555 8.70476 3.56375 8.62733L0.303418 6.14694C0.0142547 5.92695 -0.0518018 5.57741 0.0362771 5.29344C0.124545 5.00885 0.378188 4.7598 0.743936 4.7598H4.7742C4.89238 4.7598 5.00587 4.67955 5.04687 4.54743L6.29237 0.533549Z" fill="black"/>
</mask>
<g mask="url(#mask0_425_4689)">
<path d="M0.875 0H0V14H0.875V0Z" fill="#3F3C38"/>
</g>
</g>
<g clip-path="url(#clip1_425_4689)">
<path fill-rule="evenodd" clip-rule="evenodd" d="M22.2924 0.533549C22.5131 -0.177851 23.4869 -0.177848 23.7076 0.533549L24.9532 4.54743C24.9941 4.67955 25.1076 4.7598 25.2258 4.7598H29.2561C29.6218 4.7598 29.8755 5.00886 29.9637 5.29344C30.0518 5.57742 29.9857 5.92695 29.6965 6.14694L26.4362 8.62733C26.3344 8.70476 26.2874 8.84739 26.3288 8.98091L27.5742 12.9944C27.6821 13.3422 27.5445 13.6673 27.3073 13.8479C27.0685 14.0296 26.7187 14.0707 26.4261 13.848L23.1653 11.3673C23.066 11.2918 22.934 11.2918 22.8347 11.3673L19.5739 13.848C19.2812 14.0707 18.9315 14.0296 18.6928 13.8479C18.4555 13.6673 18.3179 13.3422 18.4258 12.9944L19.6712 8.98091C19.7126 8.84739 19.6655 8.70477 19.5638 8.62733L16.3034 6.14694C16.0143 5.92695 15.9482 5.57741 16.0363 5.29344C16.1245 5.00885 16.3782 4.7598 16.7439 4.7598H20.7742C20.8924 4.7598 21.0059 4.67955 21.0469 4.54743L22.2924 0.533549Z" fill="#3F3C38"/>
<mask id="mask1_425_4689" style="mask-type:alpha" maskUnits="userSpaceOnUse" x="16" y="0" width="14" height="14">
<path fill-rule="evenodd" clip-rule="evenodd" d="M22.2924 0.533549C22.5131 -0.177851 23.4869 -0.177848 23.7076 0.533549L24.9532 4.54743C24.9941 4.67955 25.1076 4.7598 25.2258 4.7598H29.2561C29.6218 4.7598 29.8755 5.00886 29.9637 5.29344C30.0518 5.57742 29.9857 5.92695 29.6965 6.14694L26.4362 8.62733C26.3344 8.70476 26.2874 8.84739 26.3288 8.98091L27.5742 12.9944C27.6821 13.3422 27.5445 13.6673 27.3073 13.8479C27.0685 14.0296 26.7187 14.0707 26.4261 13.848L23.1653 11.3673C23.066 11.2918 22.934 11.2918 22.8347 11.3673L19.5739 13.848C19.2812 14.0707 18.9315 14.0296 18.6928 13.8479C18.4555 13.6673 18.3179 13.3422 18.4258 12.9944L19.6712 8.98091C19.7126 8.84739 19.6655 8.70476 19.5638 8.62733L16.3034 6.14694C16.0143 5.92695 15.9482 5.57741 16.0363 5.29344C16.1245 5.00885 16.3782 4.7598 16.7439 4.7598H20.7742C20.8924 4.7598 21.0059 4.67955 21.0469 4.54743L22.2924 0.533549Z" fill="black"/>
</mask>
<g mask="url(#mask1_425_4689)">
<path d="M16.875 0H16V14H16.875V0Z" fill="#3F3C38"/>
</g>
</g>
<g clip-path="url(#clip2_425_4689)">
<path fill-rule="evenodd" clip-rule="evenodd" d="M38.2924 0.533549C38.5131 -0.177851 39.4869 -0.177848 39.7076 0.533549L40.9532 4.54743C40.9941 4.67955 41.1076 4.7598 41.2258 4.7598H45.2561C45.6218 4.7598 45.8755 5.00886 45.9637 5.29344C46.0518 5.57742 45.9857 5.92695 45.6965 6.14694L42.4362 8.62733C42.3344 8.70476 42.2874 8.84739 42.3288 8.98091L43.5742 12.9944C43.6821 13.3422 43.5445 13.6673 43.3073 13.8479C43.0685 14.0296 42.7187 14.0707 42.4261 13.848L39.1653 11.3673C39.066 11.2918 38.934 11.2918 38.8347 11.3673L35.5739 13.848C35.2812 14.0707 34.9315 14.0296 34.6928 13.8479C34.4555 13.6673 34.3179 13.3422 34.4258 12.9944L35.6712 8.98091C35.7126 8.84739 35.6655 8.70477 35.5638 8.62733L32.3034 6.14694C32.0143 5.92695 31.9482 5.57741 32.0363 5.29344C32.1245 5.00885 32.3782 4.7598 32.7439 4.7598H36.7742C36.8924 4.7598 37.0059 4.67955 37.0469 4.54743L38.2924 0.533549Z" fill="#3F3C38"/>
<mask id="mask2_425_4689" style="mask-type:alpha" maskUnits="userSpaceOnUse" x="32" y="0" width="14" height="14">
<path fill-rule="evenodd" clip-rule="evenodd" d="M38.2924 0.533549C38.5131 -0.177851 39.4869 -0.177848 39.7076 0.533549L40.9532 4.54743C40.9941 4.67955 41.1076 4.7598 41.2258 4.7598H45.2561C45.6218 4.7598 45.8755 5.00886 45.9637 5.29344C46.0518 5.57742 45.9857 5.92695 45.6965 6.14694L42.4362 8.62733C42.3344 8.70476 42.2874 8.84739 42.3288 8.98091L43.5742 12.9944C43.6821 13.3422 43.5445 13.6673 43.3073 13.8479C43.0685 14.0296 42.7187 14.0707 42.4261 13.848L39.1653 11.3673C39.066 11.2918 38.934 11.2918 38.8347 11.3673L35.5739 13.848C35.2812 14.0707 34.9315 14.0296 34.6928 13.8479C34.4555 13.6673 34.3179 13.3422 34.4258 12.9944L35.6712 8.98091C35.7126 8.84739 35.6655 8.70476 35.5638 8.62733L32.3034 6.14694C32.0143 5.92695 31.9482 5.57741 32.0363 5.29344C32.1245 5.00885 32.3782 4.7598 32.7439 4.7598H36.7742C36.8924 4.7598 37.0059 4.67955 37.0469 4.54743L38.2924 0.533549Z" fill="black"/>
</mask>
<g mask="url(#mask2_425_4689)">
<path d="M32.875 0H32V14H32.875V0Z" fill="#3F3C38"/>
</g>
</g>
<g clip-path="url(#clip3_425_4689)">
<path fill-rule="evenodd" clip-rule="evenodd" d="M54.2924 0.533549C54.5131 -0.177851 55.4869 -0.177848 55.7076 0.533549L56.9532 4.54743C56.9941 4.67955 57.1076 4.7598 57.2258 4.7598H61.2561C61.6218 4.7598 61.8755 5.00886 61.9637 5.29344C62.0518 5.57742 61.9857 5.92695 61.6965 6.14694L58.4362 8.62733C58.3344 8.70476 58.2874 8.84739 58.3288 8.98091L59.5742 12.9944C59.6821 13.3422 59.5445 13.6673 59.3073 13.8479C59.0685 14.0296 58.7187 14.0707 58.4261 13.848L55.1653 11.3673C55.066 11.2918 54.934 11.2918 54.8347 11.3673L51.5739 13.848C51.2812 14.0707 50.9315 14.0296 50.6928 13.8479C50.4555 13.6673 50.3179 13.3422 50.4258 12.9944L51.6712 8.98091C51.7126 8.84739 51.6655 8.70477 51.5638 8.62733L48.3034 6.14694C48.0143 5.92695 47.9482 5.57741 48.0363 5.29344C48.1245 5.00885 48.3782 4.7598 48.7439 4.7598H52.7742C52.8924 4.7598 53.0059 4.67955 53.0469 4.54743L54.2924 0.533549Z" fill="#3F3C38"/>
<mask id="mask3_425_4689" style="mask-type:alpha" maskUnits="userSpaceOnUse" x="48" y="0" width="14" height="14">
<path fill-rule="evenodd" clip-rule="evenodd" d="M54.2924 0.533549C54.5131 -0.177851 55.4869 -0.177848 55.7076 0.533549L56.9532 4.54743C56.9941 4.67955 57.1076 4.7598 57.2258 4.7598H61.2561C61.6218 4.7598 61.8755 5.00886 61.9637 5.29344C62.0518 5.57742 61.9857 5.92695 61.6965 6.14694L58.4362 8.62733C58.3344 8.70476 58.2874 8.84739 58.3288 8.98091L59.5742 12.9944C59.6821 13.3422 59.5445 13.6673 59.3073 13.8479C59.0685 14.0296 58.7187 14.0707 58.4261 13.848L55.1653 11.3673C55.066 11.2918 54.934 11.2918 54.8347 11.3673L51.5739 13.848C51.2812 14.0707 50.9315 14.0296 50.6928 13.8479C50.4555 13.6673 50.3179 13.3422 50.4258 12.9944L51.6712 8.98091C51.7126 8.84739 51.6655 8.70476 51.5638 8.62733L48.3034 6.14694C48.0143 5.92695 47.9482 5.57741 48.0363 5.29344C48.1245 5.00885 48.3782 4.7598 48.7439 4.7598H52.7742C52.8924 4.7598 53.0059 4.67955 53.0469 4.54743L54.2924 0.533549Z" fill="black"/>
</mask>
<g mask="url(#mask3_425_4689)">
<path d="M48.875 0H48V14H48.875V0Z" fill="#3F3C38"/>
</g>
</g>
<g clip-path="url(#clip4_425_4689)">
<path fill-rule="evenodd" clip-rule="evenodd" d="M70.2924 0.533549C70.5131 -0.177851 71.4869 -0.177848 71.7076 0.533549L72.9532 4.54743C72.9941 4.67955 73.1076 4.7598 73.2258 4.7598H77.2561C77.6218 4.7598 77.8755 5.00886 77.9637 5.29344C78.0518 5.57742 77.9857 5.92695 77.6965 6.14694L74.4362 8.62733C74.3344 8.70476 74.2874 8.84739 74.3288 8.98091L75.5742 12.9944C75.6821 13.3422 75.5445 13.6673 75.3073 13.8479C75.0685 14.0296 74.7187 14.0707 74.4261 13.848L71.1653 11.3673C71.066 11.2918 70.934 11.2918 70.8347 11.3673L67.5739 13.848C67.2812 14.0707 66.9315 14.0296 66.6928 13.8479C66.4555 13.6673 66.3179 13.3422 66.4258 12.9944L67.6712 8.98091C67.7126 8.84739 67.6655 8.70477 67.5638 8.62733L64.3034 6.14694C64.0143 5.92695 63.9482 5.57741 64.0363 5.29344C64.1245 5.00885 64.3782 4.7598 64.7439 4.7598H68.7742C68.8924 4.7598 69.0059 4.67955 69.0469 4.54743L70.2924 0.533549Z" fill="#3F3C38"/>
<mask id="mask4_425_4689" style="mask-type:alpha" maskUnits="userSpaceOnUse" x="64" y="0" width="14" height="14">
<path fill-rule="evenodd" clip-rule="evenodd" d="M70.2924 0.533549C70.5131 -0.177851 71.4869 -0.177848 71.7076 0.533549L72.9532 4.54743C72.9941 4.67955 73.1076 4.7598 73.2258 4.7598H77.2561C77.6218 4.7598 77.8755 5.00886 77.9637 5.29344C78.0518 5.57742 77.9857 5.92695 77.6965 6.14694L74.4362 8.62733C74.3344 8.70476 74.2874 8.84739 74.3288 8.98091L75.5742 12.9944C75.6821 13.3422 75.5445 13.6673 75.3073 13.8479C75.0685 14.0296 74.7187 14.0707 74.4261 13.848L71.1653 11.3673C71.066 11.2918 70.934 11.2918 70.8347 11.3673L67.5739 13.848C67.2812 14.0707 66.9315 14.0296 66.6928 13.8479C66.4555 13.6673 66.3179 13.3422 66.4258 12.9944L67.6712 8.98091C67.7126 8.84739 67.6655 8.70476 67.5638 8.62733L64.3034 6.14694C64.0143 5.92695 63.9482 5.57741 64.0363 5.29344C64.1245 5.00885 64.3782 4.7598 64.7439 4.7598H68.7742C68.8924 4.7598 69.0059 4.67955 69.0469 4.54743L70.2924 0.533549Z" fill="black"/>
</mask>
<g mask="url(#mask4_425_4689)">
<path d="M64.875 0H64V14H64.875V0Z" fill="#3F3C38"/>
</g>
</g>
<defs>
<clipPath id="clip0_425_4689">
<rect width="14" height="14" fill="white"/>
</clipPath>
<clipPath id="clip1_425_4689">
<rect width="14" height="14" fill="white" transform="translate(16)"/>
</clipPath>
<clipPath id="clip2_425_4689">
<rect width="14" height="14" fill="white" transform="translate(32)"/>
</clipPath>
<clipPath id="clip3_425_4689">
<rect width="14" height="14" fill="white" transform="translate(48)"/>
</clipPath>
<clipPath id="clip4_425_4689">
<rect width="14" height="14" fill="white" transform="translate(64)"/>
</clipPath>
</defs>
</svg>
